<?xml version="1.0" standalone="no"?>
<!DOCTYPE svg PUBLIC "-//W3C//DTD SVG 20010904//EN"
 "http://www.w3.org/TR/2001/REC-SVG-20010904/DTD/svg10.dtd">
<svg version="1.0" xmlns="http://www.w3.org/2000/svg"
 width="512.000000pt" height="512.000000pt" viewBox="0 0 512.000000 512.000000"
 preserveAspectRatio="xMidYMid meet">

<g transform="translate(0.000000,512.000000) scale(0.100000,-0.100000)"
fill="#000000" stroke="none">
<path d="M2420 5105 c-314 -71 -533 -384 -489 -700 25 -183 141 -370 281 -453
27 -16 28 -19 28 -104 l0 -88 -178 0 c-173 0 -178 1 -214 25 -52 35 -149 59
-207 50 -72 -11 -134 -42 -184 -93 -81 -83 -110 -184 -83 -290 37 -144 138
-230 282 -240 81 -5 127 7 195 49 l46 29 171 0 172 0 0 -1033 0 -1034 -23 -21
c-31 -29 -73 -28 -180 3 -222 64 -455 183 -605 309 -53 43 -92 47 -127 11 -56
-55 -28 -93 160 -220 228 -154 602 -294 730 -275 68 10 131 54 165 113 l30 52
-3 1077 -2 1077 -35 36 c-19 19 -50 40 -70 45 -19 5 -125 10 -235 10 -218 0
-194 5 -294 -62 -33 -22 -102 -23 -147 -2 -100 48 -120 180 -40 260 65 65 159
66 230 4 l34 -30 228 0 c211 0 232 2 262 20 61 37 72 69 72 213 0 94 -4 136
-15 157 -8 16 -48 54 -89 85 -203 153 -266 392 -162 609 141 293 519 366 759
146 235 -215 212 -563 -50 -757 -40 -29 -80 -67 -88 -83 -11 -21 -15 -62 -15
-157 0 -144 11 -176 72 -213 30 -18 51 -20 262 -20 l228 0 34 30 c73 63 164
62 230 -4 106 -106 34 -276 -118 -276 -41 0 -51 5 -137 62 -23 16 -52 18 -226
18 -110 0 -216 -5 -235 -10 -20 -5 -51 -26 -70 -45 l-35 -36 -3 -129 c-3 -119
-2 -130 17 -149 28 -28 82 -28 107 0 15 16 19 40 22 120 l4 99 171 0 170 0 46
-29 c68 -42 114 -54 195 -49 117 8 212 72 262 176 36 76 38 182 5 257 -44 99
-143 174 -252 190 -57 8 -152 -14 -209 -50 -38 -24 -45 -25 -215 -25 l-175 0
1 88 0 87 62 45 c111 81 197 210 233 351 20 77 22 214 5 289 -23 99 -86 214
-157 290 -127 134 -265 199 -439 206 -65 2 -123 -1 -165 -11z"/>
<path d="M2475 4787 c-68 -23 -101 -44 -148 -97 -139 -155 -90 -398 99 -491
40 -20 64 -24 134 -24 102 0 156 21 220 85 85 85 114 213 75 330 -23 68 -99
151 -167 180 -64 27 -158 35 -213 17z m173 -164 c37 -28 63 -65 71 -104 21
-101 -57 -199 -159 -199 -48 0 -85 17 -122 57 -75 80 -42 218 62 262 37 16
117 7 148 -16z"/>
<path d="M2747 2852 c-16 -17 -17 -90 -17 -838 l0 -820 33 -54 c43 -72 111
-111 194 -111 124 0 430 111 628 229 176 105 382 295 458 423 43 73 45 87 17
122 -16 20 -35 28 -93 37 -39 7 -77 15 -83 19 -8 4 59 103 178 266 105 143
213 292 241 330 l51 70 58 -434 c32 -239 56 -436 54 -438 -2 -2 -42 15 -90 38
-118 57 -125 54 -194 -76 -120 -225 -211 -353 -353 -490 -140 -135 -248 -206
-551 -361 -399 -204 -529 -302 -703 -529 l-15 -20 -15 20 c-109 142 -221 248
-363 342 -45 30 -195 113 -333 183 -301 155 -422 233 -553 360 -147 142 -223
245 -346 474 -83 153 -86 155 -206 97 -48 -23 -88 -40 -90 -38 -2 2 22 199 54
438 l58 434 51 -70 c28 -38 136 -187 241 -330 119 -163 186 -262 178 -266 -6
-4 -44 -12 -83 -19 -58 -9 -77 -17 -93 -37 -23 -29 -24 -42 -9 -77 21 -46 50
-48 218 -17 165 30 191 43 191 96 0 14 -59 104 -148 227 -82 111 -237 325
-346 473 -133 183 -205 274 -224 281 -33 14 -66 3 -85 -28 -10 -15 -44 -241
-96 -635 -88 -662 -88 -650 -31 -673 31 -13 36 -11 193 65 42 21 79 36 81 34
1 -2 22 -40 45 -84 92 -173 251 -380 372 -486 157 -136 269 -207 570 -359 219
-110 305 -160 389 -225 82 -63 210 -201 270 -291 61 -91 75 -103 111 -104 23
0 79 41 79 59 0 16 108 153 173 220 130 133 222 193 544 356 390 197 554 323
750 575 58 75 138 201 178 281 15 29 29 56 31 58 2 3 58 -22 124 -54 110 -53
122 -57 148 -46 59 25 59 10 -29 674 -52 394 -86 620 -96 635 -19 31 -52 42
-85 28 -18 -7 -81 -84 -184 -226 -494 -676 -534 -733 -534 -756 0 -45 38 -70
128 -84 45 -7 82 -17 82 -22 0 -23 -193 -199 -285 -260 -178 -119 -473 -243
-605 -255 -49 -5 -58 -2 -77 19 l-23 24 -2 801 c-3 772 -4 802 -22 822 -25 27
-86 29 -109 3z"/>
</g>
</svg>
